<?xml version="1.0" encoding="UTF-8"?>
<!DOCTYPE svg PUBLIC "-//W3C//DTD SVG 1.1//EN" "http://www.w3.org/Graphics/SVG/1.1/DTD/svg11.dtd">
<!-- Creator: CorelDRAW X7 -->
<svg xmlns="http://www.w3.org/2000/svg" xml:space="preserve" width="43.2994mm" height="24.327mm" version="1.1" style="shape-rendering:geometricPrecision; text-rendering:geometricPrecision; image-rendering:optimizeQuality; fill-rule:evenodd; clip-rule:evenodd"
viewBox="0 0 3534 1986"
 xmlns:xlink="http://www.w3.org/1999/xlink">
 <defs>
  <style type="text/css">
   <![CDATA[
    .str0 {stroke:#FF9900;stroke-width:6.22012}
    .fil8 {fill:none}
    .fil2 {fill:#FEFEFE}
    .fil5 {fill:#FFF5C0}
    .fil4 {fill:#FFF2C0}
    .fil3 {fill:#F39513}
    .fil7 {fill:#BDBAB9}
    .fil1 {fill:#252423}
    .fil6 {fill:#F39513;fill-rule:nonzero}
    .fil0 {fill:#252423;fill-rule:nonzero}
    .fil9 {fill:#FF9900;fill-rule:nonzero}
   ]]>
  </style>
 </defs>
 <g id="Layer_x0020_1">
  <metadata id="CorelCorpID_0Corel-Layer"/>
  <g id="_448673344">
   <g>
    <path class="fil0" d="M842 1130l177 -114 -307 61 130 53zm189 -119l-189 122 -1 0 -137 -56 3 -1 324 -65z"/>
    <path class="fil0" d="M703 1076l-190 -113 31 110 159 3zm-193 -118l2 2 200 118 -169 -3 -33 -117z"/>
    <path class="fil0" d="M509 959l-239 119 195 -4 44 -115zm-249 122l253 -127 -46 123 -1 0 -206 4z"/>
    <path class="fil0" d="M408 397l-51 -72 -72 185 123 -113zm-51 -77l54 77 -1 1 -131 121 2 -5 76 -194z"/>
    <path class="fil0" d="M409 395l167 -253 -217 181 50 72zm178 -265l-178 269 -54 -77 1 0 231 -192z"/>
    <path class="fil0" d="M415 391l277 -239 -110 -15 -167 254zm283 -241l-2 2 -292 251 177 -268 1 0 116 15z"/>
    <path class="fil0" d="M935 172l-105 -76 -130 55 235 21zm-105 -79l114 82 -254 -23 140 -59z"/>
    <path class="fil0" d="M1056 241l-46 -100 -68 32 114 68zm-45 -103l1 1 49 108 -124 -74 74 -35z"/>
    <path class="fil0" d="M1191 344l-39 -108 -91 9 130 99zm-38 -111l43 118 -141 -108 98 -10z"/>
    <path class="fil0" d="M1386 653l-63 15 70 44 -7 -59zm-66 15l67 -17 1 1 7 62 -75 -46z"/>
    <path class="fil0" d="M668 1138l-64 16 70 43 -6 -59zm-67 15l68 -17 0 1 7 63 -75 -47z"/>
    <path class="fil0" d="M217 299l60 -25 -75 -33 15 58zm63 -25l-64 26 0 0 -16 -61 80 35z"/>
    <path class="fil0" d="M1252 855l-29 -111 -60 185 89 -74zm-29 -119l31 120 0 1 -96 78 65 -199z"/>
    <path class="fil0" d="M1109 1023l49 -88 -129 78 80 10zm55 -94l-53 96 -89 -11 142 -85z"/>
    <path class="fil0" d="M707 1075l7 -91 -197 -21 190 112zm9 -93l-7 97 -203 -120 210 23z"/>
    <path class="fil0" d="M1023 1012l-82 -109 -221 79 303 30zm-81 -112l0 1 86 114 -3 0 -315 -32 232 -83z"/>
    <path class="fil0" d="M1160 931l61 -189 -276 159 215 30zm65 -194l-63 196 -224 -31 287 -165z"/>
    <path class="fil1" d="M1234 796l1 -6 1 3 -1 1 1 0 0 1 -2 1zm5 -1l-1 -1 119 -15 -108 -49 -12 58 -1 -3 12 -57 0 1 114 51 -123 15z"/>
    <path class="fil1" d="M1236 795l0 -1 2 0 1 1 -3 0zm0 -2l-1 -3 1 -5 1 3 -1 5z"/>
    <path class="fil1" d="M1107 341l-98 -21 23 98 75 -77zm-99 -23l101 22 -1 1 -76 79 -24 -102z"/>
    <path class="fil1" d="M864 14l-89 47 81 60 8 -107zm-90 47l91 -48 0 1 -8 109 -83 -62z"/>
    <path class="fil1" d="M562 5l-87 50 103 82 -16 -132zm-89 50l90 -52 0 1 16 136 -106 -85z"/>
    <path class="fil1" d="M1191 1038l-82 -18 20 83 62 -65zm-83 -19l85 19 -1 0 -64 66 -20 -85z"/>
    <path class="fil1" d="M220 989l-115 -25 27 115 88 -90zm-116 -26l118 25 -1 1 -89 92 -28 -118z"/>
    <path class="fil1" d="M711 981l-167 -128 -31 107 198 21zm-168 -132l1 1 175 134 -209 -22 0 -2 33 -111z"/>
    <path class="fil1" d="M353 956l106 37 -102 -196 -4 159zm109 39l-111 -38 4 -166 107 204z"/>
    <path class="fil1" d="M258 449l57 -59 -156 -20 99 79zm59 -60l-59 61 0 0 -104 -82 3 0 160 21z"/>
    <path class="fil1" d="M228 755l9 -87 -58 24 49 63zm9 -88l0 0 -8 89 -51 -64 1 0 58 -25z"/>
    <path class="fil1" d="M1619 773l-63 -168 -84 97 147 71zm-63 -171l1 2 65 172 -153 -73 1 -1 86 -100z"/>
    <path class="fil1" d="M1625 477l-63 -40 5 88 58 -48zm-64 -41l1 0 65 41 -1 0 -60 49 -5 -90z"/>
    <path class="fil1" d="M1428 521l-29 -218 -206 66 235 152zm-27 -221l0 1 30 224 -244 -157 214 -68z"/>
    <path class="fil1" d="M1511 537l-46 -162 -96 98 142 64zm-45 -165l0 1 48 168 -2 -1 -146 -67 1 0 99 -101z"/>
    <path class="fil1" d="M670 336l7 -186 -120 234 113 -48zm8 -193l-7 194 0 0 -118 50 1 -2 124 -242z"/>
    <path class="fil1" d="M819 301l64 -87 -134 27 70 60zm67 -89l-67 90 0 0 -73 -62 2 0 138 -28z"/>
    <path class="fil1" d="M377 241l-48 -101 -42 50 90 51zm-48 -102l0 0 50 104 -93 -53 0 0 43 -51z"/>
    <path class="fil1" d="M1184 345c1,-4 5,-8 10,-7 4,1 8,5 7,10 -1,5 -5,8 -10,7 -5,-1 -8,-5 -7,-10z"/>
    <path class="fil1" d="M688 150c1,-5 5,-8 10,-7 4,0 8,5 7,9 -1,5 -5,8 -10,7 -5,0 -8,-5 -7,-9z"/>
    <path class="fil1" d="M855 302c1,-4 5,-8 10,-7 4,1 8,5 7,10 -1,5 -5,8 -10,7 -5,-1 -8,-5 -7,-10z"/>
    <path class="fil1" d="M964 7c0,-4 5,-8 9,-7 5,1 8,5 7,10 0,5 -5,8 -9,7 -5,-1 -8,-5 -7,-10z"/>
    <path class="fil1" d="M368 240c1,-5 6,-8 10,-7 5,1 8,5 7,10 0,4 -5,8 -9,7 -5,-1 -8,-5 -8,-10z"/>
    <path class="fil1" d="M1255 256c0,-3 3,-5 6,-5 3,1 5,3 4,6 0,3 -3,5 -6,5 -3,-1 -5,-3 -4,-6z"/>
    <path class="fil1" d="M1179 149c0,-3 3,-5 6,-5 3,1 5,3 4,6 0,3 -3,5 -6,5 -3,-1 -5,-3 -4,-6z"/>
    <path class="fil1" d="M85 442c0,-3 3,-5 6,-4 3,0 5,3 4,6 0,3 -3,5 -6,4 -2,0 -4,-3 -4,-6z"/>
    <path class="fil1" d="M401 133c0,-2 3,-4 6,-4 3,1 5,3 4,6 0,3 -3,5 -6,5 -3,-1 -5,-4 -4,-7z"/>
    <path class="fil1" d="M1001 1118c0,-3 3,-5 6,-5 3,1 5,4 4,6 0,3 -3,5 -6,5 -3,-1 -5,-3 -4,-6z"/>
    <path class="fil1" d="M726 917c1,-3 3,-5 6,-4 3,0 5,3 5,6 -1,3 -4,5 -6,4 -3,0 -5,-3 -5,-6z"/>
    <path class="fil1" d="M1428 681c1,-3 4,-5 6,-5 3,1 5,4 5,6 -1,3 -3,5 -6,5 -3,-1 -5,-3 -5,-6z"/>
    <path class="fil1" d="M312 596c1,-3 3,-5 6,-4 3,0 5,3 5,6 -1,3 -4,5 -6,4 -3,0 -5,-3 -5,-6z"/>
    <path class="fil1" d="M579 1131c1,-4 5,-7 9,-7 4,1 7,5 6,9 -1,4 -4,7 -8,6 -5,-1 -7,-4 -7,-8z"/>
    <path class="fil1" d="M401 394c1,-5 5,-8 10,-7 4,1 8,5 7,10 -1,4 -5,8 -10,7 -5,-1 -8,-5 -7,-10z"/>
    <path class="fil1" d="M1116 714c0,-5 5,-8 9,-7 5,1 8,5 7,10 0,4 -5,7 -9,7 -5,-1 -8,-6 -7,-10z"/>
    <path class="fil1" d="M1015 1012c1,-4 5,-7 10,-7 4,1 7,5 7,10 -1,5 -6,8 -10,7 -5,-1 -8,-5 -7,-10z"/>
    <path class="fil1" d="M503 958c1,-4 5,-8 10,-7 5,1 8,5 7,10 -1,5 -5,8 -10,7 -4,-1 -7,-5 -7,-10z"/>
    <path class="fil1" d="M696 1075c1,-4 6,-7 10,-7 5,1 8,6 7,10 0,5 -5,8 -9,7 -5,-1 -8,-5 -8,-10z"/>
    <path class="fil1" d="M1216 738c1,-5 6,-8 10,-7 5,1 8,5 7,10 -1,4 -5,7 -10,7 -4,-1 -7,-5 -7,-10z"/>
    <path class="fil1" d="M1152 931c0,-5 5,-8 9,-7 5,0 8,5 8,9 -1,5 -6,8 -10,8 -5,-1 -8,-6 -7,-10z"/>
    <path class="fil0" d="M1140 418c0,-5 5,-8 9,-7 5,1 8,5 8,10 -1,4 -6,7 -10,7 -5,-1 -8,-5 -7,-10z"/>
    <path class="fil0" d="M293 1125c1,-4 5,-7 10,-6 4,1 7,5 7,8 -1,4 -5,7 -10,6 -4,-1 -8,-4 -7,-8z"/>
    <path class="fil0" d="M698 71c1,-4 5,-8 10,-7 4,1 8,5 7,10 -1,5 -5,8 -10,7 -5,-1 -8,-5 -7,-10z"/>
    <path class="fil0" d="M781 1170c1,-5 5,-8 10,-7 4,1 7,5 7,10 -1,4 -5,8 -10,7 -5,-1 -8,-5 -7,-10z"/>
    <path class="fil0" d="M1393 300c1,-5 5,-8 10,-7 5,1 8,5 7,10 -1,4 -5,7 -10,7 -4,-1 -8,-6 -7,-10z"/>
    <path class="fil0" d="M928 175c0,-5 5,-8 9,-7 5,0 8,5 7,9 0,5 -5,8 -9,7 -5,0 -8,-5 -7,-9z"/>
    <path class="fil0" d="M1455 922c1,-6 7,-11 14,-10 7,1 12,8 11,14 -1,7 -8,12 -15,11 -7,-1 -11,-8 -10,-15z"/>
    <path class="fil0" d="M1547 604c1,-7 8,-12 15,-10 7,1 11,7 10,14 -1,7 -7,12 -14,10 -7,-1 -12,-7 -11,-14z"/>
    <path class="fil0" d="M1499 532c1,-7 7,-11 14,-10 7,1 12,7 11,14 -1,7 -8,12 -15,11 -7,-1 -11,-8 -10,-15z"/>
    <path class="fil0" d="M530 854c1,-7 8,-12 15,-11 7,1 11,8 10,15 -1,6 -7,11 -14,10 -7,-1 -12,-8 -11,-14z"/>
    <path class="fil0" d="M1428 431c1,-7 7,-12 14,-10 7,1 12,7 11,14 -2,7 -8,12 -15,11 -7,-2 -12,-8 -10,-15z"/>
    <path class="fil0" d="M929 899c1,-7 8,-12 15,-10 7,1 11,7 10,14 -1,7 -7,12 -14,10 -7,-1 -12,-7 -11,-14z"/>
    <path class="fil0" d="M141 768c1,-7 8,-11 15,-10 7,1 11,7 10,14 -1,7 -7,12 -14,11 -7,-1 -12,-8 -11,-15z"/>
    <path class="fil0" d="M316 791c1,-7 8,-12 15,-11 7,1 11,8 10,15 -1,6 -8,11 -14,10 -7,-1 -12,-8 -11,-14z"/>
    <path class="fil0" d="M89 895c1,-7 8,-12 14,-11 7,2 12,8 11,15 -1,7 -8,11 -15,10 -6,-1 -11,-7 -10,-14z"/>
    <path class="fil0" d="M706 979c2,-7 8,-12 15,-11 7,1 12,8 10,15 -1,7 -7,11 -14,10 -7,-1 -12,-7 -11,-14z"/>
    <path class="fil0" d="M834 1129l-117 -63 -164 9 281 54zm-116 -66l0 1 131 70 -315 -60 184 -11z"/>
    <path class="fil0" d="M492 1061l-130 63 179 -54 -49 -9zm-144 67l144 -70 58 12 -201 60 -1 -2z"/>
    <path class="fil0" d="M325 872l-156 -2 211 71 -55 -69zm-170 -4l171 2 0 0 61 76 -4 -1 -228 -77z"/>
    <path class="fil0" d="M1112 1020l203 -49 -147 -6 -56 55zm219 -50l-227 54 63 -62 0 0 164 8z"/>
    <path class="fil0" d="M179 525l93 -14 -115 -32 22 46zm105 -13l-106 16 0 0 -25 -53 131 37z"/>
    <path class="fil0" d="M1253 851l200 70 -144 -81 -56 11zm213 75l-1 2 -221 -77 66 -13 156 88z"/>
    <path class="fil0" d="M1492 365l-208 41 156 24 52 -65zm-221 42l227 -46 -57 72 -1 0 -169 -26z"/>
    <path class="fil0" d="M1267 409l-112 -169 23 114 89 55zm-117 -180l125 188 -99 -62 0 0 -26 -126z"/>
    <path class="fil0" d="M726 171l99 -75 -238 40 139 35zm108 -78l-107 80 -1 0 -150 -37 258 -43z"/>
    <path class="fil0" d="M1147 232l144 -68 -77 -4 -67 72zm153 -70l-164 77 78 -81 0 0 86 4z"/>
    <path class="fil0" d="M713 1062l-140 -110 -48 71 188 39zm-140 -113l149 118 -201 -42 52 -76z"/>
    <path class="fil0" d="M901 1048l-146 -36 -35 51 181 -15zm-147 -38l1 0 161 39 -201 17 39 -56z"/>
    <path class="fil0" d="M910 1046l209 -103 -193 -12 -16 115zm218 -105l-221 109 17 -121 1 0 203 12z"/>
    <path class="fil0" d="M1123 940l107 -140 -150 72 43 68zm115 -147l-115 151 -47 -73 162 -78z"/>
    <path class="fil0" d="M1450 594l-27 -23 -7 39 34 -16zm-28 -24l1 0 28 24 0 0 -35 17 6 -41z"/>
    <path class="fil0" d="M332 795l-39 -29 -8 49 47 -20zm-40 -30l1 0 40 31 -1 0 -48 20 8 -51z"/>
    <path class="fil0" d="M639 850l-27 -22 -7 39 34 -17zm-28 -23l1 0 28 24 0 0 -35 16 6 -40z"/>
    <path class="fil0" d="M477 1133l-28 -22 -6 38 34 -16zm-28 -23l0 0 28 24 0 0 -35 16 7 -40z"/>
    <path class="fil0" d="M948 1158l-52 -30 -7 46 59 -16zm-53 -31l1 0 54 31 -1 1 -61 16 7 -48z"/>
    <path class="fil0" d="M1121 429l-15 -32 -22 32 37 0zm-15 -33l0 0 16 34 -1 0 -38 0 23 -34z"/>
    <path class="fil0" d="M736 1171l-15 -32 -22 32 37 0zm-15 -33l0 0 16 34 0 0 -39 0 23 -34z"/>
    <path class="fil1" d="M945 97l-10 -39 -32 47 42 -8zm-10 -40l0 0 11 41 0 0 -44 7 33 -48z"/>
    <path class="fil1" d="M213 619l-35 9 27 28 8 -37zm-36 8l0 0 36 -9 0 1 -7 38 -29 -30z"/>
    <path class="fil1" d="M31 326l-25 25 38 10 -13 -35zm-26 25l0 0 26 -26 1 0 12 37 -39 -11z"/>
    <path class="fil1" d="M1179 160l-28 -23 -6 39 34 -16zm-28 -24l0 0 29 24 -1 0 -35 17 7 -41z"/>
    <path class="fil1" d="M778 335l20 -30 -40 -3 20 33zm21 -31l-1 1 -20 30 0 0 -20 -33 41 2z"/>
    <path class="fil1" d="M1035 54l-62 -46 39 128 23 -82zm-63 -48l0 0 64 47 0 1 -23 85 -41 -133z"/>
    <path class="fil1" d="M101 702l-27 -22 -6 39 33 -17zm-28 -23l1 0 28 24 0 0 -35 16 6 -40z"/>
    <path class="fil1" d="M672 977l18 -107 -118 74 100 33zm19 -110l-18 112 -104 -34 2 -1 120 -77z"/>
    <path class="fil1" d="M571 951l-169 -97 121 168 48 -71zm-177 -105l180 104 0 1 -51 75 -1 -1 -128 -179z"/>
    <path class="fil1" d="M466 902l0 -1 -1 -11 1 0 1 11 8 -5 1 0 -10 6zm12 -7l-1 -1 54 -34c0,0 0,1 0,1l-53 34zm-12 -7l-1 -1 -10 -86 1 0 77 46c0,1 0,1 0,1l-77 -46 10 86z"/>
    <path class="fil0" d="M531 861c0,0 0,-1 0,-1l11 -7 -9 -5c0,0 0,0 0,-1l10 6 0 1 -12 7z"/>
    <path class="fil0" d="M476 896l-1 0 2 -2 1 1 -2 1zm-10 -6l-1 0 0 -3 1 1 0 2z"/>
    <path class="fil0" d="M211 960l6 -112 -116 46 110 66zm7 -114l-6 115 -113 -68 119 -47z"/>
    <path class="fil0" d="M1079 867l-147 -28 70 57 77 -29zm-151 -30l155 30 -81 31 -1 0 -73 -61z"/>
    <path class="fil0" d="M1541 810l-83 -15 -3 65 86 -50zm-83 -16l85 16 -1 0 -87 51 0 0 3 -67z"/>
    <path class="fil0" d="M351 322l-65 -53 -34 55 99 -2zm-65 -54l67 55 -1 0 -101 2 0 0 35 -57z"/>
    <path class="fil0" d="M1199 790l-40 -56 -11 81 51 -25zm-41 -58l42 58 -53 26 0 -1 11 -83z"/>
    <path class="fil0" d="M1365 466l-91 -50 -6 64 97 -14zm-92 -52l95 53 -101 14 6 -67z"/>
    <path class="fil0" d="M1379 309l-47 -68 -30 54 77 14zm-47 -69l48 70 -1 -1 -77 -14 0 0 30 -55z"/>
    <path class="fil0" d="M153 770l-126 -89 1 139 125 -50zm-127 -91l1 0 129 91 -1 1 -128 51 0 -1 -1 -142z"/>
    <path class="fil0" d="M1161 297l38 -70 -119 13 81 57zm39 -71l-39 72 0 0 -83 -59 122 -13z"/>
    <path class="fil0" d="M1174 353l-125 -140 -129 133 254 7zm-125 -143l1 1 130 145 -265 -8 2 -2 132 -136z"/>
    <path class="fil0" d="M1047 212l-144 -57 16 189 128 -132zm-146 -61l150 60 -134 139 -16 -199z"/>
    <path class="fil0" d="M747 284l147 -124 -167 13 20 111zm154 -126l-3 2 -152 127 -20 -116 1 0 174 -13z"/>
    <path class="fil0" d="M541 385l181 -209 -271 140 90 69zm190 -217l-4 5 -186 215 -1 0 -93 -73 2 0 282 -147z"/>
    <path class="fil0" d="M539 386l-90 -69 -100 112 190 -43zm-90 -72l95 73 -3 1 -198 45 106 -119z"/>
    <path class="fil0" d="M110 525l62 -89 -135 45 73 44zm64 -90l-64 92 0 -1 -75 -45 1 -1 138 -45z"/>
    <path class="fil0" d="M279 518l55 -85 -87 13 32 72zm57 -86l0 1 -57 87 -34 -75 91 -13z"/>
    <path class="fil0" d="M390 495l52 -59 -47 8 -5 51zm54 -60l-55 62 5 -54 0 0 50 -8z"/>
    <path class="fil0" d="M270 726c1,-8 10,-14 18,-13 9,2 15,10 14,19 -2,8 -10,14 -19,13 -8,-2 -14,-10 -13,-19z"/>
    <path class="fil0" d="M1440 791c1,-9 9,-15 18,-14 9,2 14,10 13,19 -1,8 -9,14 -18,13 -9,-1 -15,-10 -13,-18z"/>
    <path class="fil0" d="M0 609c2,-8 10,-14 18,-13 9,2 15,10 14,18 -2,9 -10,15 -19,14 -8,-2 -14,-10 -13,-19z"/>
    <path class="fil0" d="M385 851c1,-9 9,-15 18,-13 9,1 15,9 13,18 -1,9 -9,14 -18,13 -9,-1 -15,-10 -13,-18z"/>
    <path class="fil0" d="M908 930c2,-9 10,-15 19,-13 8,1 14,9 13,18 -1,8 -10,14 -18,13 -9,-1 -15,-10 -14,-18z"/>
    <path class="fil0" d="M1064 869c1,-9 9,-15 18,-14 9,2 14,10 13,19 -1,8 -9,14 -18,13 -9,-2 -15,-10 -13,-18z"/>
    <path class="fil0" d="M740 1007c1,-9 10,-15 18,-14 9,2 15,10 13,19 -1,8 -9,14 -18,13 -9,-1 -14,-10 -13,-18z"/>
    <path class="fil0" d="M558 945c1,-9 9,-15 18,-13 9,1 15,9 13,18 -1,9 -9,15 -18,13 -9,-1 -15,-9 -13,-18z"/>
    <path class="fil0" d="M511 1020c2,-7 8,-11 15,-10 7,1 12,7 10,14 -1,7 -7,12 -14,11 -7,-1 -12,-8 -11,-15z"/>
    <path class="fil0" d="M530 1075c1,-7 7,-12 14,-10 7,1 12,7 10,14 -1,7 -7,12 -14,11 -7,-2 -12,-8 -10,-15z"/>
    <path class="fil0" d="M706 1062c1,-7 7,-11 14,-10 7,1 12,7 11,14 -1,7 -8,12 -15,11 -7,-1 -11,-8 -10,-15z"/>
    <path class="fil0" d="M831 1129c1,-7 8,-12 15,-10 7,1 11,7 10,14 -1,7 -7,12 -14,11 -7,-2 -12,-8 -11,-15z"/>
    <path class="fil0" d="M1098 1019c1,-6 8,-11 15,-10 7,1 11,8 10,14 -1,7 -7,12 -14,11 -7,-1 -12,-8 -11,-15z"/>
    <path class="fil0" d="M1108 937c1,-7 8,-12 14,-11 7,1 12,8 11,15 -1,7 -8,11 -15,10 -6,-1 -11,-7 -10,-14z"/>
    <path class="fil0" d="M1219 793c1,-7 8,-11 15,-10 6,1 11,7 10,14 -1,7 -8,12 -14,11 -7,-2 -12,-8 -11,-15z"/>
    <path class="fil0" d="M1257 413c1,-6 7,-11 14,-10 7,1 12,8 11,14 -1,7 -8,12 -15,11 -7,-1 -11,-8 -10,-15z"/>
    <path class="fil0" d="M1145 230c1,-7 7,-11 14,-10 7,1 12,7 11,14 -2,7 -8,12 -15,11 -7,-1 -12,-8 -10,-15z"/>
    <path class="fil0" d="M1000 137c1,-7 8,-12 15,-10 6,1 11,7 10,14 -1,7 -8,12 -14,11 -7,-2 -12,-8 -11,-15z"/>
    <path class="fil0" d="M563 135c1,-7 7,-12 14,-11 7,1 12,8 11,15 -1,7 -8,11 -15,10 -7,-1 -11,-7 -10,-14z"/>
    <path class="fil0" d="M348 323c1,-7 7,-12 14,-11 7,1 12,8 11,15 -2,7 -8,11 -15,10 -7,-1 -11,-7 -10,-14z"/>
    <path class="fil0" d="M332 431c1,-6 7,-11 14,-10 7,1 12,8 11,14 -1,7 -8,12 -15,11 -7,-1 -11,-8 -10,-15z"/>
    <path class="fil0" d="M269 513c1,-7 7,-12 14,-11 7,1 12,8 11,15 -2,7 -8,11 -15,10 -7,-1 -12,-7 -10,-14z"/>
    <path class="fil0" d="M93 524c1,-7 8,-12 15,-11 7,2 11,8 10,15 -1,7 -7,12 -14,10 -7,-1 -12,-7 -11,-14z"/>
    <path class="fil0" d="M376 941c1,-7 7,-12 14,-11 7,1 12,8 10,15 -1,7 -7,11 -14,10 -7,-1 -12,-7 -10,-14z"/>
    <path class="fil0" d="M1036 215c1,-7 7,-12 14,-11 7,1 12,8 11,15 -1,6 -8,11 -15,10 -7,-1 -11,-8 -10,-14z"/>
    <path class="fil0" d="M895 1044c1,-7 8,-11 15,-10 7,1 11,7 10,14 -1,7 -8,12 -14,11 -7,-1 -12,-8 -11,-15z"/>
    <path class="fil0" d="M1240 854c1,-7 7,-12 14,-11 7,2 12,8 11,15 -1,7 -8,11 -15,10 -7,-1 -11,-7 -10,-14z"/>
    <path class="fil0" d="M1301 587c1,-7 7,-12 14,-11 7,2 12,8 11,15 -1,7 -8,12 -15,10 -7,-1 -11,-7 -10,-14z"/>
    <path class="fil0" d="M1440 271c1,-7 7,-11 14,-10 7,1 12,7 11,14 -1,7 -8,12 -15,11 -7,-1 -11,-8 -10,-15z"/>
    <path class="fil0" d="M852 11c1,-7 7,-12 14,-11 7,1 12,8 10,15 -1,7 -7,11 -14,10 -7,-1 -12,-7 -10,-14z"/>
    <path class="fil0" d="M1318 968c1,-7 7,-12 14,-11 7,2 12,8 11,15 -1,7 -8,11 -15,10 -7,-1 -11,-7 -10,-14z"/>
    <path class="fil0" d="M1485 363c1,-7 8,-11 14,-10 7,1 12,8 11,14 -1,7 -8,12 -15,11 -6,-1 -11,-8 -10,-15z"/>
    <path class="fil0" d="M904 346c1,-9 9,-15 18,-13 9,1 15,9 13,18 -1,9 -9,15 -18,13 -9,-1 -15,-9 -13,-18z"/>
    <path class="fil0" d="M884 154c2,-8 10,-14 19,-13 8,1 14,10 13,18 -2,9 -10,15 -18,14 -9,-2 -15,-10 -14,-19z"/>
    <path class="fil0" d="M707 172c2,-8 10,-14 19,-13 8,2 14,10 13,19 -2,8 -10,14 -18,13 -9,-2 -15,-10 -14,-19z"/>
    <path class="fil0" d="M431 315c2,-9 10,-15 19,-14 8,2 14,10 13,19 -1,8 -10,14 -18,13 -9,-1 -15,-10 -14,-18z"/>
    <path class="fil0" d="M1237 485c1,-8 9,-14 18,-13 9,2 15,10 13,18 -1,9 -9,15 -18,14 -9,-2 -15,-10 -13,-19z"/>
    <path class="fil0" d="M1553 428c1,-4 5,-6 8,-6 4,1 7,5 6,8 -1,4 -4,7 -8,6 -4,-1 -6,-4 -6,-8z"/>
    <path class="fil0" d="M707 302c0,-3 4,-6 7,-5 4,0 7,4 6,7 0,4 -4,7 -8,6 -3,0 -6,-4 -5,-8z"/>
    <path class="fil0" d="M1163 353c1,-8 9,-14 18,-13 9,2 15,10 13,18 -1,9 -9,15 -18,14 -9,-2 -15,-10 -13,-19z"/>
    <path class="fil0" d="M188 991c2,-10 11,-17 21,-15 10,1 16,11 15,20 -2,10 -11,17 -21,15 -10,-1 -16,-11 -15,-20z"/>
    <path class="fil0" d="M1558 519c1,-4 4,-7 8,-6 3,1 6,4 5,8 0,4 -4,6 -7,6 -4,-1 -7,-5 -6,-8z"/>
    <path class="fil0" d="M519 384c2,-12 14,-20 26,-18 13,2 21,13 19,26 -2,12 -14,20 -26,18 -12,-2 -21,-13 -19,-26z"/>
    <path class="fil0" d="M136 362c2,-12 13,-21 25,-19 13,2 21,14 19,26 -2,12 -13,21 -26,19 -12,-2 -20,-14 -18,-26z"/>
    <path class="fil1" d="M573 649c-67,-1 -61,43 -60,106 0,22 -2,58 1,78 5,35 22,33 15,71 -5,30 -48,40 -60,103 -23,112 18,39 -56,115 -65,67 -170,243 -68,345 71,69 72,54 70,98 -50,-8 -173,-52 -238,62 -53,95 -13,199 56,237 36,20 90,32 117,54 32,28 43,57 104,66 59,9 77,-23 147,-19 53,4 103,14 157,15 91,1 249,14 319,-22 41,-22 67,-69 90,-82 44,-25 171,-6 238,-104 21,-31 37,-89 26,-138 -29,-129 -175,-111 -229,-120 25,-22 53,-52 73,-79 55,-72 -29,-260 -110,-326 -77,-63 -5,-88 -70,-165 -16,-20 -28,-17 -31,-47 -3,-36 10,-28 16,-64 3,-21 1,-56 1,-78 0,-61 7,-107 -60,-106 0,-66 -30,-105 -63,-137 -70,-67 -247,-70 -319,-4 -35,32 -68,72 -66,141z"/>
    <path class="fil2" d="M1118 1344l-431 -5c-41,0 -191,-11 -211,10 -24,24 17,133 26,167 17,64 9,120 80,142 24,7 179,6 212,4 31,-3 164,-72 233,-96 43,-15 52,-5 65,-50 16,-55 45,-124 26,-172z"/>
    <path class="fil3" d="M715 1761c17,11 27,19 44,33 84,69 104,67 177,44 65,-21 125,-65 191,-35 33,15 22,17 44,39 107,-17 203,-31 227,-127 32,-127 -62,-174 -178,-170 -110,4 -475,159 -505,216z"/>
    <path class="fil3" d="M722 1802c-45,-45 -208,-156 -270,-186 -49,-24 -123,-55 -185,-28 -52,23 -93,67 -83,147 15,128 116,109 182,159 28,21 18,31 63,52 110,49 172,-81 252,-122 6,-3 12,-5 19,-9l22 -13z"/>
    <path class="fil4" d="M735 680l-19 -41c0,1 -1,2 -2,5l-10 21c-1,1 -2,4 -3,5l-26 -28c-10,23 -12,54 -19,82l-16 -29 -13 44 -8 -67c-36,41 -36,173 -8,229 39,8 62,-1 99,-9 66,-15 53,4 85,7 21,1 23,-22 83,-8 38,8 64,18 105,11 13,-42 17,-79 18,-126 1,-68 -8,-70 -29,-114l-19 26c-7,-25 -7,-39 -27,-58l-14 64c-11,-59 -12,-82 -47,-117 -115,35 -101,50 -127,97 -1,2 -2,4 -3,6z"/>
    <path class="fil3" d="M1043 1309c189,-2 91,104 77,227 74,-39 153,-106 138,-198 -18,-103 -72,-179 -130,-221l-40 97c-13,31 -41,66 -45,95z"/>
    <path class="fil4" d="M607 1936c119,9 215,13 336,14 84,0 134,-10 182,-74 20,-25 10,-41 -22,-49 -73,-20 -203,92 -283,48 -35,-19 -53,-81 -170,11 -12,9 -35,36 -43,50z"/>
    <path class="fil3" d="M472 1535c-1,-45 -29,-104 -34,-148 -9,-75 45,-77 112,-79 -3,-28 -43,-78 -63,-140l-12 -37c-5,-10 -6,-11 -9,-14 -56,34 -114,126 -130,221 -13,76 1,79 42,117 26,25 47,55 94,80z"/>
    <path class="fil3" d="M958 1139c-11,35 -5,38 -9,72 -2,15 2,14 -8,22 -35,26 18,-19 -17,0l-7 75 83 0c28,-33 63,-108 80,-153 34,-92 23,-120 -7,-197 -16,23 2,32 -28,56 -63,51 18,21 -48,81 -17,16 -4,-9 -17,27 -22,57 0,14 -22,17z"/>
    <path class="fil3" d="M678 1308l-9 -75c-20,-10 -12,41 -23,-15 -6,-26 0,-44 -8,-72l-6 1c-27,-4 -3,-23 -35,-53 -9,-8 -15,-6 -21,-22 -17,-45 19,-23 -23,-56 -13,-11 -13,-5 -20,-22 -5,-11 -2,-8 -6,-17l-4 -13c0,-2 -1,-5 -2,-6 -52,135 -23,177 51,318 25,48 45,33 106,32z"/>
    <path class="fil1" d="M694 457c77,-21 127,-23 205,-1 3,-71 -26,-100 -98,-101 -78,0 -108,25 -107,102z"/>
    <path class="fil0" d="M643 780c-4,-4 -4,-11 0,-15 5,-4 11,-4 16,1 0,0 33,37 70,-1 4,-4 11,-4 16,0 4,4 4,11 0,16 -53,54 -102,0 -102,-1z"/>
    <path class="fil0" d="M842 780c-4,-4 -4,-11 0,-15 5,-4 12,-4 16,1 0,0 34,37 70,-1 5,-4 12,-4 16,0 4,4 4,11 0,16 -53,54 -102,0 -102,-1z"/>
    <path class="fil5" d="M710 974c0,0 45,12 87,-17 0,0 20,22 79,18 0,0 7,27 -29,28 -37,1 -111,0 -111,0 0,0 -26,0 -26,-29z"/>
    <path class="fil0" d="M1312 1266l0 -241 45 0 0 204 126 0 0 37 -171 0zm248 -141l120 0 0 37 -120 0 0 -37zm4 104l136 0 0 37 -181 0 0 -241 176 0 0 38 -131 0 0 166zm152 37l108 -241 45 0 108 241 -46 0 -94 -217 18 0 -93 217 -46 0zm50 -55l12 -36 130 0 12 36 -154 0zm242 55l0 -241 100 0c21,0 39,4 55,10 15,7 27,17 35,30 8,13 12,28 12,46 0,18 -4,33 -12,46 -8,12 -20,22 -35,29 -16,7 -34,10 -55,10l-75 0 20 -20 0 90 -45 0zm158 0l-61 -87 48 0 61 87 -48 0zm-113 -85l-20 -22 72 0c20,0 35,-4 45,-13 10,-8 15,-20 15,-35 0,-15 -5,-27 -15,-36 -10,-8 -25,-12 -45,-12l-72 0 20 -22 0 140zm207 85l0 -241 37 0 152 186 -19 0 0 -186 45 0 0 241 -37 0 -152 -185 19 0 0 185 -45 0zm280 0l0 -241 44 0 0 241 -44 0zm110 0l0 -241 37 0 151 186 -18 0 0 -186 44 0 0 241 -37 0 -151 -185 18 0 0 185 -44 0zm392 4c-19,0 -36,-3 -52,-9 -16,-6 -30,-15 -41,-26 -12,-11 -21,-24 -28,-40 -6,-15 -9,-31 -9,-49 0,-18 3,-35 9,-50 7,-15 16,-28 28,-39 12,-12 26,-20 41,-26 16,-6 34,-9 52,-9 21,0 39,3 56,10 16,6 30,16 41,29l-28 28c-9,-10 -20,-17 -30,-21 -11,-5 -23,-7 -36,-7 -13,0 -25,2 -36,6 -10,4 -20,10 -28,18 -7,7 -13,16 -18,27 -4,10 -6,21 -6,34 0,12 2,23 6,34 5,10 11,19 18,27 8,7 17,13 28,17 11,5 22,7 35,7 12,0 24,-2 35,-6 11,-4 22,-10 32,-19l25 33c-12,10 -27,18 -44,23 -16,5 -33,8 -50,8zm52 -37l0 -90 42 0 0 96 -42 -6z"/>
    <polygon class="fil3" points="1509,1836 3342,1836 3342,1950 1509,1950 "/>
    <path class="fil0" d="M1691 1795c-36,0 -70,-5 -103,-14 -34,-9 -61,-20 -81,-35l40 -91c20,13 43,23 68,31 26,8 51,12 77,12 17,0 31,-1 41,-4 11,-4 18,-8 23,-13 5,-5 7,-11 7,-18 0,-10 -4,-18 -14,-24 -9,-6 -21,-11 -35,-15 -15,-3 -31,-7 -49,-11 -18,-4 -35,-8 -53,-14 -18,-6 -34,-14 -48,-23 -15,-9 -27,-22 -36,-37 -9,-15 -14,-35 -14,-58 0,-26 7,-50 22,-71 14,-21 36,-39 64,-51 29,-13 65,-20 108,-20 29,0 57,3 85,10 28,6 52,16 74,28l-38 92c-21,-11 -42,-19 -62,-25 -21,-6 -40,-9 -60,-9 -17,0 -30,2 -41,6 -10,3 -18,8 -22,14 -5,6 -7,12 -7,20 0,9 4,17 13,23 9,5 21,10 36,13 15,4 31,8 49,11 17,4 35,9 53,15 18,5 34,13 48,22 15,9 27,22 36,37 9,15 13,34 13,57 0,26 -7,49 -21,71 -15,21 -36,38 -65,51 -28,13 -64,20 -108,20zm955 -9l0 -438 102 0 241 291 -48 0 0 -291 122 0 0 438 -102 0 -242 -292 48 0 0 292 -121 0zm597 0l0 -340 -134 0 0 -98 392 0 0 98 -134 0 0 340 -124 0z"/>
    <path class="fil6" d="M1890 1786l193 -438 122 0 194 438 -129 0 -151 -377 48 0 -151 377 -126 0zm105 -85l32 -92 214 0 32 92 -278 0zm439 85l0 -438 124 0 0 438 -124 0z"/>
    <path class="fil0" d="M1568 1912c-3,0 -6,-1 -9,-2 -4,-1 -6,-2 -8,-4l3 -6c2,1 4,2 6,3 3,1 6,2 8,2 3,0 5,-1 6,-1 2,-1 3,-1 3,-2 1,-1 1,-2 1,-3 0,-1 0,-2 -1,-3 -1,-1 -2,-2 -4,-2 -1,-1 -3,-1 -5,-2 -2,0 -4,0 -6,-1 -2,-1 -3,-1 -5,-2 -1,-1 -3,-2 -3,-4 -1,-1 -2,-3 -2,-6 0,-2 1,-4 2,-6 1,-2 3,-4 6,-5 2,-1 6,-2 10,-2 2,0 5,1 8,1 2,1 5,2 6,3l-2 6c-2,-1 -4,-2 -6,-2 -2,-1 -4,-1 -6,-1 -3,0 -4,0 -6,1 -1,0 -2,1 -3,2 -1,1 -1,2 -1,3 0,1 1,2 2,3 1,1 2,2 3,2 2,1 4,1 5,2 2,0 4,0 6,1 2,1 4,1 5,2 2,1 3,2 4,4 1,1 1,3 1,5 0,3 0,5 -2,7 -1,2 -3,4 -6,5 -2,1 -5,2 -10,2zm41 -1c-4,0 -7,0 -9,-2 -3,-1 -5,-3 -7,-6 -1,-3 -2,-6 -2,-9 0,-3 1,-6 2,-9 2,-2 4,-4 7,-6 2,-1 5,-2 9,-2 3,0 6,1 9,2 3,2 5,4 6,6 2,3 3,6 3,9 0,3 -1,6 -3,9 -1,3 -3,5 -6,6 -3,2 -6,2 -9,2zm0 -6c2,0 3,-1 5,-2 1,0 3,-2 3,-3 1,-2 2,-4 2,-6 0,-2 -1,-4 -2,-6 0,-1 -2,-2 -3,-3 -2,-1 -3,-1 -5,-1 -2,0 -4,0 -5,1 -2,1 -3,2 -4,3 -1,2 -1,4 -1,6 0,2 0,4 1,6 1,1 2,3 4,3 1,1 3,2 5,2zm41 6c-4,0 -7,0 -10,-2 -3,-1 -5,-3 -6,-6 -2,-3 -3,-6 -3,-9 0,-3 1,-6 3,-9 1,-2 3,-4 6,-6 3,-1 6,-2 10,-2 3,0 6,1 8,2 3,1 5,3 6,6l-6 3c-1,-1 -2,-3 -4,-3 -1,-1 -3,-1 -4,-1 -2,0 -4,0 -6,1 -1,1 -2,2 -3,3 -1,2 -2,4 -2,6 0,2 1,4 2,6 1,1 2,3 3,3 2,1 4,2 6,2 1,0 3,-1 4,-2 2,0 3,-1 4,-3l6 3c-1,3 -3,5 -6,6 -2,2 -5,2 -8,2zm20 0l0 -34 8 0 0 34 -8 0zm4 -39c-1,0 -2,-1 -3,-2 -1,-1 -2,-2 -2,-3 0,-1 1,-2 2,-3 1,-1 2,-2 3,-2 2,0 3,1 4,2 1,0 1,2 1,3 0,1 0,2 -1,3 -1,1 -2,2 -4,2zm30 39c-3,0 -7,0 -9,-2 -3,-1 -5,-3 -7,-6 -1,-3 -2,-6 -2,-9 0,-3 1,-6 2,-9 2,-2 4,-4 6,-6 3,-1 6,-2 9,-2 3,0 6,1 9,2 3,1 5,4 6,6 1,3 2,6 2,9 0,1 0,1 0,1 0,1 0,1 0,2l-28 0 0 -6 24 0 -3 2c0,-2 -1,-4 -1,-5 -1,-2 -2,-3 -4,-4 -1,0 -3,-1 -5,-1 -2,0 -3,1 -5,1 -1,1 -2,2 -3,4 -1,1 -1,3 -1,5l0 1c0,2 0,4 1,6 1,1 2,3 4,3 1,1 3,2 6,2 1,0 3,-1 5,-1 1,-1 3,-2 4,-3l4 5c-2,2 -3,3 -6,4 -2,1 -5,1 -8,1zm36 0c-3,0 -6,-1 -8,-3 -2,-1 -3,-4 -3,-8l0 -30 8 0 0 30c0,1 0,3 1,4 1,0 2,1 3,1 2,0 4,-1 5,-2l2 6c-1,1 -2,1 -3,2 -2,0 -3,0 -5,0zm-17 -27l0 -6 23 0 0 6 -23 0zm34 40c-2,0 -4,-1 -5,-1 -2,-1 -3,-2 -4,-3l3 -5c1,0 1,1 2,1 1,1 2,1 3,1 2,0 3,0 4,-1 1,-1 2,-2 2,-4l2 -4 1 -1 13 -30 7 0 -15 37c-2,2 -3,4 -4,6 -1,1 -3,2 -4,3 -2,0 -4,1 -5,1zm6 -12l-15 -35 8 0 13 29 -6 6zm60 -1c-4,0 -7,0 -10,-2 -2,-1 -4,-3 -6,-6 -1,-3 -2,-6 -2,-9 0,-3 1,-6 2,-9 2,-2 4,-4 6,-6 3,-1 6,-2 10,-2 3,0 6,1 9,2 3,2 5,4 6,6 2,3 3,6 3,9 0,3 -1,6 -3,9 -1,3 -3,5 -6,6 -3,2 -6,2 -9,2zm0 -6c2,0 3,-1 5,-2 1,0 2,-2 3,-3 1,-2 2,-4 2,-6 0,-2 -1,-4 -2,-6 -1,-1 -2,-2 -3,-3 -2,-1 -3,-1 -5,-1 -2,0 -4,0 -5,1 -2,1 -3,2 -4,3 -1,2 -1,4 -1,6 0,2 0,4 1,6 1,1 2,3 4,3 1,1 3,2 5,2zm26 6l0 -36c0,-3 1,-6 3,-8 2,-2 5,-3 9,-3 2,0 3,0 4,0 1,1 2,1 3,2l-2 6c-1,-1 -1,-1 -2,-2 -1,0 -1,0 -2,0 -2,0 -3,1 -4,1 -1,1 -1,3 -1,5l0 3 0 4 0 28 -8 0zm-5 -27l0 -6 22 0 0 6 -22 0zm39 27l20 -44 8 0 20 44 -9 0 -17 -40 4 0 -17 40 -9 0zm9 -10l3 -7 23 0 2 7 -28 0zm44 10l0 -34 7 0 0 10 -1 -3c1,-2 3,-4 5,-5 2,-1 5,-2 8,-2l0 7c0,0 0,0 -1,0 0,0 0,0 -1,0 -3,0 -5,1 -7,3 -1,2 -2,4 -2,8l0 16 -8 0zm40 0c-4,0 -7,-1 -9,-3 -2,-1 -3,-4 -3,-8l0 -30 8 0 0 30c0,1 0,3 1,4 1,0 2,1 4,1 1,0 3,-1 4,-2l2 6c-1,1 -2,1 -3,2 -1,0 -3,0 -4,0zm-17 -27l0 -6 22 0 0 6 -22 0zm31 27l0 -34 8 0 0 34 -8 0zm4 -39c-2,0 -3,-1 -4,-2 -1,-1 -1,-2 -1,-3 0,-1 0,-2 1,-3 1,-1 2,-2 4,-2 1,0 2,1 3,2 1,0 2,2 2,3 0,1 -1,2 -2,3 -1,1 -2,2 -3,2zm15 39l0 -36c0,-3 1,-6 3,-8 2,-2 5,-3 9,-3 1,0 3,0 4,0 1,1 2,1 3,2l-2 6c-1,-1 -1,-1 -2,-2 -1,0 -2,0 -2,0 -2,0 -3,1 -4,1 -1,1 -1,3 -1,5l0 3 0 4 0 28 -8 0zm-5 -27l0 -6 22 0 0 6 -22 0zm27 27l0 -34 8 0 0 34 -8 0zm4 -39c-1,0 -2,-1 -3,-2 -1,-1 -2,-2 -2,-3 0,-1 1,-2 2,-3 1,-1 2,-2 3,-2 2,0 3,1 4,2 1,0 1,2 1,3 0,1 0,2 -1,3 -1,1 -2,2 -4,2zm30 39c-3,0 -7,0 -9,-2 -3,-1 -5,-3 -7,-6 -1,-3 -2,-6 -2,-9 0,-3 1,-6 2,-9 2,-2 4,-4 7,-6 2,-1 6,-2 9,-2 3,0 6,1 9,2 2,1 4,3 5,6l-6 3c-1,-1 -2,-3 -3,-3 -2,-1 -3,-1 -5,-1 -2,0 -4,0 -5,1 -2,1 -3,2 -4,3 -1,2 -1,4 -1,6 0,2 0,4 1,6 1,1 2,3 4,3 1,1 3,2 5,2 2,0 3,-1 5,-2 1,0 2,-1 3,-3l6 3c-1,3 -3,5 -5,6 -3,2 -6,2 -9,2zm21 0l0 -34 8 0 0 34 -8 0zm4 -39c-2,0 -3,-1 -4,-2 -1,-1 -1,-2 -1,-3 0,-1 0,-2 1,-3 1,-1 2,-2 4,-2 1,0 2,1 3,2 1,0 2,2 2,3 0,1 -1,2 -2,3 0,1 -2,2 -3,2zm35 39l0 -7 -1 -1 0 -12c0,-3 0,-4 -2,-6 -1,-1 -3,-2 -6,-2 -2,0 -4,1 -6,1 -1,1 -3,2 -4,3l-3 -6c1,-1 4,-2 6,-3 3,-1 5,-1 8,-1 5,0 9,1 11,3 3,3 4,6 4,11l0 20 -7 0zm-11 0c-2,0 -5,0 -6,-1 -2,-1 -4,-2 -5,-4 -1,-1 -1,-3 -1,-5 0,-2 0,-3 1,-5 1,-1 2,-3 4,-3 2,-1 5,-2 9,-2l9 0 0 5 -9 0c-3,0 -4,1 -5,2 -1,1 -2,2 -2,3 0,1 1,3 2,3 1,1 3,2 5,2 2,0 3,-1 5,-2 2,-1 3,-2 3,-4l2 5c-1,2 -2,4 -4,5 -2,1 -5,1 -8,1zm28 0l0 -47 8 0 0 47 -8 0zm37 0l0 -44 8 0 0 44 -8 0zm38 -34c3,0 5,0 7,2 2,1 4,2 5,4 1,2 2,5 2,9l0 19 -8 0 0 -18c0,-3 -1,-6 -2,-7 -1,-1 -3,-2 -6,-2 -2,0 -3,0 -5,1 -1,1 -2,2 -3,3 -1,2 -1,4 -1,6l0 17 -8 0 0 -34 7 0 0 9 -1 -2c1,-3 3,-4 5,-5 2,-2 5,-2 8,-2zm37 34c-4,0 -7,-1 -9,-3 -2,-1 -3,-4 -3,-8l0 -30 8 0 0 30c0,1 0,3 1,4 1,0 2,1 4,1 1,0 3,-1 4,-2l2 6c-1,1 -2,1 -3,2 -2,0 -3,0 -4,0zm-18 -27l0 -6 23 0 0 6 -23 0zm46 27c-3,0 -7,0 -10,-2 -2,-1 -4,-3 -6,-6 -2,-3 -2,-6 -2,-9 0,-3 0,-6 2,-9 1,-2 3,-4 6,-6 3,-1 6,-2 9,-2 3,0 6,1 9,2 2,1 4,4 6,6 1,3 2,6 2,9 0,1 0,1 0,1 0,1 0,1 0,2l-28 0 0 -6 24 0 -3 2c0,-2 -1,-4 -2,-5 0,-2 -1,-3 -3,-4 -1,0 -3,-1 -5,-1 -2,0 -4,1 -5,1 -1,1 -3,2 -3,4 -1,1 -2,3 -2,5l0 1c0,2 1,4 2,6 1,1 2,3 4,3 1,1 3,2 5,2 2,0 4,-1 6,-1 1,-1 2,-2 4,-3l4 5c-2,2 -4,3 -6,4 -2,1 -5,1 -8,1zm24 0l0 -47 7 0 0 47 -7 0zm18 0l0 -47 8 0 0 47 -8 0zm18 0l0 -34 8 0 0 34 -8 0zm4 -39c-2,0 -3,-1 -4,-2 -1,-1 -1,-2 -1,-3 0,-1 0,-2 1,-3 1,-1 2,-2 4,-2 1,0 3,1 4,2 0,0 1,2 1,3 0,1 -1,2 -1,3 -1,1 -3,2 -4,2zm29 52c-3,0 -6,-1 -9,-2 -3,-1 -5,-2 -7,-3l4 -6c1,1 3,2 5,3 2,0 5,1 7,1 4,0 6,-1 8,-3 2,-1 3,-4 3,-7l0 -6 0 -8 0 -8 0 -8 7 0 0 29c0,6 -1,10 -4,13 -3,3 -8,5 -14,5zm-1 -15c-3,0 -6,0 -8,-2 -3,-1 -5,-3 -6,-5 -2,-3 -3,-6 -3,-9 0,-3 1,-6 3,-8 1,-3 3,-5 6,-6 2,-1 5,-2 8,-2 3,0 6,0 8,2 2,1 4,3 5,5 2,2 2,5 2,9 0,4 0,7 -2,9 -1,3 -3,5 -5,6 -2,1 -5,1 -8,1zm2 -6c1,0 3,-1 5,-2 1,0 3,-1 3,-3 1,-1 2,-3 2,-5 0,-2 -1,-3 -2,-5 0,-1 -2,-2 -3,-3 -2,-1 -4,-1 -5,-1 -2,0 -4,0 -6,1 -1,1 -3,2 -3,3 -1,2 -2,3 -2,5 0,2 1,4 2,5 0,2 2,3 3,3 2,1 4,2 6,2zm44 8c-4,0 -7,0 -10,-2 -3,-1 -5,-3 -7,-6 -1,-3 -2,-6 -2,-9 0,-3 1,-6 2,-9 2,-2 4,-4 6,-6 3,-1 6,-2 9,-2 4,0 7,1 9,2 3,1 5,4 6,6 2,3 2,6 2,9 0,1 0,1 0,1 0,1 0,1 0,2l-28 0 0 -6 24 0 -3 2c0,-2 0,-4 -1,-5 -1,-2 -2,-3 -4,-4 -1,0 -3,-1 -5,-1 -2,0 -3,1 -5,1 -1,1 -2,2 -3,4 -1,1 -1,3 -1,5l0 1c0,2 0,4 1,6 1,1 2,3 4,3 2,1 4,2 6,2 2,0 3,-1 5,-1 1,-1 3,-2 4,-3l4 5c-1,2 -3,3 -6,4 -2,1 -4,1 -7,1zm42 -34c3,0 5,0 7,2 2,1 4,2 5,4 1,2 2,5 2,9l0 19 -8 0 0 -18c0,-3 -1,-6 -2,-7 -1,-1 -3,-2 -6,-2 -2,0 -3,0 -5,1 -1,1 -2,2 -3,3 -1,2 -1,4 -1,6l0 17 -8 0 0 -34 7 0 0 9 -1 -2c1,-3 3,-4 5,-5 2,-2 5,-2 8,-2zm39 34c-3,0 -6,0 -9,-2 -3,-1 -5,-3 -6,-6 -2,-3 -3,-6 -3,-9 0,-3 1,-6 3,-9 1,-2 3,-4 6,-6 3,-1 6,-2 9,-2 4,0 7,1 9,2 3,1 5,3 6,6l-6 3c-1,-1 -2,-3 -4,-3 -1,-1 -3,-1 -5,-1 -2,0 -3,0 -5,1 -1,1 -3,2 -3,3 -1,2 -2,4 -2,6 0,2 1,4 2,6 0,1 2,3 3,3 2,1 3,2 5,2 2,0 4,-1 5,-2 2,0 3,-1 4,-3l6 3c-1,3 -3,5 -6,6 -2,2 -5,2 -9,2zm37 0c-4,0 -7,0 -10,-2 -3,-1 -5,-3 -6,-6 -2,-3 -3,-6 -3,-9 0,-3 1,-6 3,-9 1,-2 3,-4 6,-6 2,-1 5,-2 9,-2 3,0 6,1 8,2 3,1 5,4 6,6 2,3 3,6 3,9 0,1 0,1 0,1 0,1 0,1 0,2l-28 0 0 -6 23 0 -3 2c0,-2 0,-4 -1,-5 -1,-2 -2,-3 -3,-4 -2,0 -3,-1 -5,-1 -2,0 -4,1 -5,1 -2,1 -3,2 -4,4 -1,1 -1,3 -1,5l0 1c0,2 0,4 1,6 1,1 3,3 4,3 2,1 4,2 6,2 2,0 4,-1 5,-1 2,-1 3,-2 4,-3l4 5c-1,2 -3,3 -5,4 -3,1 -5,1 -8,1zm103 0l0 -44 7 0 27 34 -3 0 0 -34 8 0 0 44 -6 0 -28 -34 3 0 0 34 -8 0zm66 0c-4,0 -7,0 -10,-2 -2,-1 -5,-3 -6,-6 -2,-3 -2,-6 -2,-9 0,-3 0,-6 2,-9 1,-2 3,-4 6,-6 3,-1 6,-2 9,-2 3,0 6,1 9,2 2,1 4,4 6,6 1,3 2,6 2,9 0,1 0,1 0,1 0,1 0,1 0,2l-28 0 0 -6 24 0 -3 2c0,-2 -1,-4 -2,-5 -1,-2 -2,-3 -3,-4 -2,0 -3,-1 -5,-1 -2,0 -4,1 -5,1 -2,1 -3,2 -4,4 0,1 -1,3 -1,5l0 1c0,2 1,4 2,6 1,1 2,3 3,3 2,1 4,2 6,2 2,0 4,-1 5,-1 2,-1 3,-2 4,-3l5 5c-2,2 -4,3 -6,4 -2,1 -5,1 -8,1zm38 0c-3,0 -6,0 -8,-1 -2,-1 -4,-3 -5,-5 -1,-2 -2,-5 -2,-9l0 -19 8 0 0 18c0,3 1,6 2,7 1,2 3,2 6,2 2,0 3,0 5,-1 1,0 2,-2 3,-3 1,-2 1,-3 1,-6l0 -17 8 0 0 34 -8 0 0 -9 2 3c-1,2 -3,3 -5,5 -2,1 -5,1 -7,1zm28 0l0 -34 8 0 0 10 -1 -3c1,-2 2,-4 5,-5 2,-1 4,-2 8,-2l0 7c-1,0 -1,0 -1,0 -1,0 -1,0 -1,0 -3,0 -5,1 -7,3 -2,2 -3,4 -3,8l0 16 -8 0zm45 0l0 -7 -1 -1 0 -12c0,-3 0,-4 -2,-6 -1,-1 -3,-2 -6,-2 -2,0 -4,1 -6,1 -2,1 -3,2 -4,3l-3 -6c1,-1 4,-2 6,-3 3,-1 5,-1 8,-1 5,0 8,1 11,3 3,3 4,6 4,11l0 20 -7 0zm-11 0c-2,0 -5,0 -6,-1 -2,-1 -4,-2 -5,-4 -1,-1 -1,-3 -1,-5 0,-2 0,-3 1,-5 1,-1 2,-3 4,-3 2,-1 5,-2 9,-2l9 0 0 5 -9 0c-3,0 -4,1 -5,2 -1,1 -2,2 -2,3 0,1 1,3 2,3 1,1 3,2 5,2 2,0 3,-1 5,-2 1,-1 3,-2 3,-4l2 5c-1,2 -3,4 -5,5 -1,1 -4,1 -7,1zm28 0l0 -47 8 0 0 47 -8 0zm45 0l0 -37 -14 0 0 -7 37 0 0 7 -14 0 0 37 -9 0zm41 0c-4,0 -7,0 -10,-2 -3,-1 -5,-3 -6,-6 -2,-3 -3,-6 -3,-9 0,-3 1,-6 3,-9 1,-2 3,-4 6,-6 2,-1 5,-2 9,-2 3,0 6,1 8,2 3,1 5,4 6,6 2,3 3,6 3,9 0,1 0,1 0,1 0,1 0,1 0,2l-28 0 0 -6 23 0 -3 2c0,-2 0,-4 -1,-5 -1,-2 -2,-3 -3,-4 -2,0 -3,-1 -5,-1 -2,0 -4,1 -5,1 -2,1 -3,2 -4,4 -1,1 -1,3 -1,5l0 1c0,2 0,4 1,6 1,1 3,3 4,3 2,1 4,2 6,2 2,0 4,-1 5,-1 2,-1 3,-2 4,-3l4 5c-1,2 -3,3 -5,4 -3,1 -5,1 -8,1z"/>
    <path class="fil0" d="M2960 1911c-4,0 -7,0 -10,-2 -3,-1 -5,-3 -6,-6 -2,-3 -3,-6 -3,-9 0,-3 1,-6 3,-9 1,-2 3,-4 6,-6 3,-1 6,-2 10,-2 3,0 6,1 8,2 3,1 5,3 6,6l-6 3c-1,-1 -2,-3 -4,-3 -1,-1 -3,-1 -4,-1 -2,0 -4,0 -6,1 -1,1 -2,2 -3,3 -1,2 -2,4 -2,6 0,2 1,4 2,6 1,1 2,3 3,3 2,1 4,2 6,2 1,0 3,-1 4,-2 2,0 3,-1 4,-3l6 3c-1,3 -3,5 -6,6 -2,2 -5,2 -8,2zm40 -34c2,0 5,0 7,2 2,1 4,2 5,4 1,2 2,5 2,9l0 19 -8 0 0 -18c0,-3 -1,-6 -2,-7 -2,-1 -4,-2 -6,-2 -2,0 -4,0 -5,1 -2,1 -3,2 -4,3 0,2 -1,4 -1,6l0 17 -8 0 0 -47 8 0 0 22 -1 -2c1,-3 3,-4 5,-5 2,-2 5,-2 8,-2zm43 0c2,0 5,0 7,2 2,1 4,2 5,4 1,2 2,5 2,9l0 19 -8 0 0 -18c0,-3 -1,-6 -2,-7 -2,-1 -4,-2 -6,-2 -2,0 -4,0 -5,1 -2,1 -3,2 -3,3 -1,2 -2,4 -2,6l0 17 -7 0 0 -34 7 0 0 9 -1 -2c1,-3 3,-4 5,-5 2,-2 5,-2 8,-2zm39 34c-4,0 -7,0 -9,-2 -3,-1 -5,-3 -7,-6 -1,-3 -2,-6 -2,-9 0,-3 1,-6 2,-9 2,-2 4,-4 7,-6 2,-1 5,-2 9,-2 3,0 6,1 9,2 3,2 5,4 6,6 2,3 3,6 3,9 0,3 -1,6 -3,9 -1,3 -3,5 -6,6 -3,2 -6,2 -9,2zm0 -6c2,0 3,-1 5,-2 1,0 3,-2 4,-3 0,-2 1,-4 1,-6 0,-2 -1,-4 -1,-6 -1,-1 -3,-2 -4,-3 -2,-1 -3,-1 -5,-1 -2,0 -4,0 -5,1 -2,1 -3,2 -4,3 -1,2 -1,4 -1,6 0,2 0,4 1,6 1,1 2,3 4,3 1,1 3,2 5,2zm25 6l0 -47 8 0 0 47 -8 0zm34 0c-4,0 -7,0 -10,-2 -2,-1 -4,-3 -6,-6 -2,-3 -2,-6 -2,-9 0,-3 0,-6 2,-9 2,-2 4,-4 6,-6 3,-1 6,-2 10,-2 3,0 6,1 9,2 3,2 5,4 6,6 2,3 2,6 2,9 0,3 0,6 -2,9 -1,3 -3,5 -6,6 -3,2 -6,2 -9,2zm0 -6c1,0 3,-1 5,-2 1,0 2,-2 3,-3 1,-2 2,-4 2,-6 0,-2 -1,-4 -2,-6 -1,-1 -2,-2 -3,-3 -2,-1 -3,-1 -5,-1 -2,0 -4,0 -6,1 -1,1 -2,2 -3,3 -1,2 -1,4 -1,6 0,2 0,4 1,6 1,1 2,3 3,3 2,1 4,2 6,2zm40 19c-3,0 -6,-1 -9,-2 -3,-1 -5,-2 -7,-3l3 -6c2,1 4,2 6,3 2,0 5,1 7,1 4,0 6,-1 8,-3 2,-1 3,-4 3,-7l0 -6 0 -8 0 -8 0 -8 7 0 0 29c0,6 -1,10 -4,13 -3,3 -8,5 -14,5zm-1 -15c-3,0 -6,0 -8,-2 -3,-1 -5,-3 -7,-5 -1,-3 -2,-6 -2,-9 0,-3 1,-6 2,-8 2,-3 4,-5 7,-6 2,-1 5,-2 8,-2 3,0 6,0 8,2 2,1 4,3 5,5 2,2 2,5 2,9 0,4 0,7 -2,9 -1,3 -3,5 -5,6 -2,1 -5,1 -8,1zm1 -6c2,0 4,-1 6,-2 1,0 2,-1 3,-3 1,-1 2,-3 2,-5 0,-2 -1,-3 -2,-5 -1,-1 -2,-2 -3,-3 -2,-1 -4,-1 -6,-1 -2,0 -3,0 -5,1 -1,1 -3,2 -4,3 0,2 -1,3 -1,5 0,2 1,4 1,5 1,2 3,3 4,3 2,1 3,2 5,2zm29 8l0 -34 8 0 0 34 -8 0zm4 -39c-2,0 -3,-1 -4,-2 -1,-1 -1,-2 -1,-3 0,-1 0,-2 1,-3 1,-1 2,-2 4,-2 1,0 2,1 3,2 1,0 2,2 2,3 0,1 -1,2 -2,3 -1,1 -2,2 -3,2zm30 39c-4,0 -7,0 -10,-2 -3,-1 -5,-3 -7,-6 -1,-3 -2,-6 -2,-9 0,-3 1,-6 2,-9 2,-2 4,-4 6,-6 3,-1 6,-2 9,-2 4,0 7,1 9,2 3,1 5,4 6,6 2,3 2,6 2,9 0,1 0,1 0,1 0,1 0,1 0,2l-28 0 0 -6 24 0 -3 2c0,-2 0,-4 -1,-5 -1,-2 -2,-3 -4,-4 -1,0 -3,-1 -5,-1 -1,0 -3,1 -5,1 -1,1 -2,2 -3,4 -1,1 -1,3 -1,5l0 1c0,2 0,4 1,6 1,1 2,3 4,3 2,1 4,2 6,2 2,0 3,-1 5,-1 1,-1 3,-2 4,-3l4 5c-1,2 -3,3 -6,4 -2,1 -4,1 -7,1zm33 0c-2,0 -5,0 -8,-1 -2,0 -4,-1 -6,-2l3 -6c2,1 3,1 6,2 2,1 4,1 6,1 2,0 4,0 5,-1 1,-1 2,-2 2,-3 0,-1 0,-1 -1,-2 -1,0 -2,-1 -3,-1 -1,0 -3,0 -4,-1 -2,0 -3,0 -5,-1 -1,0 -3,0 -4,-1 -1,-1 -2,-2 -3,-3 0,-1 -1,-3 -1,-5 0,-2 1,-4 2,-5 1,-2 3,-3 5,-4 2,-1 5,-1 8,-1 2,0 4,0 7,1 2,0 4,1 6,2l-3 6c-2,-1 -4,-2 -5,-2 -2,-1 -4,-1 -5,-1 -3,0 -4,1 -5,1 -2,1 -2,2 -2,3 0,1 0,2 1,2 1,1 2,1 3,2 1,0 2,0 4,0 1,0 3,1 4,1 2,0 3,1 4,2 2,0 3,1 3,2 1,2 2,3 2,5 0,2 -1,4 -2,5 -2,2 -3,3 -6,4 -2,1 -4,1 -8,1zm-685 1c-3,0 -6,-1 -8,-2 -3,-1 -5,-2 -6,-4 -1,-2 -2,-4 -2,-6 0,-2 0,-4 1,-6 1,-2 3,-3 5,-5 2,-1 4,-3 8,-4 2,-2 4,-3 5,-4 2,0 3,-1 3,-2 1,-1 1,-2 1,-3 0,-1 0,-2 -1,-3 -1,-1 -2,-1 -4,-1 -2,0 -3,0 -4,1 -1,1 -2,2 -2,4 0,0 1,1 1,2 0,0 1,1 1,2 1,1 2,2 3,3l24 22 -5 6 -25 -25c-1,-1 -2,-2 -3,-3 -1,-2 -2,-3 -2,-4 -1,-1 -1,-2 -1,-3 0,-2 1,-4 2,-6 1,-1 2,-2 4,-3 2,-1 4,-2 7,-2 2,0 5,1 6,2 2,0 3,1 4,3 1,1 2,3 2,5 0,2 -1,3 -1,5 -1,1 -3,3 -5,4 -1,2 -4,3 -7,4 -2,2 -4,3 -6,4 -1,1 -2,2 -2,3 -1,1 -1,2 -1,3 0,1 0,2 1,3 1,1 2,2 3,2 1,1 3,1 5,1 2,0 5,0 7,-2 2,-1 4,-3 6,-5 1,-2 2,-5 3,-9l6 2c-1,4 -2,8 -4,11 -3,3 -5,5 -8,7 -4,2 -7,3 -11,3z"/>
    <path class="fil7" d="M794 1445c22,0 41,18 41,41 0,23 -19,41 -41,41 -23,0 -42,-18 -42,-41 0,-23 19,-41 42,-41z"/>
   </g>
   <g>
    <path class="fil8 str0" d="M3396 974c75,0 135,61 135,136 0,75 -60,135 -135,135 -75,0 -136,-60 -136,-135 0,-75 61,-136 136,-136z"/>
    <path class="fil9" d="M3331 1183l0 -147 65 0c13,0 23,2 30,4 7,3 12,8 16,14 4,7 6,14 6,22 0,11 -3,20 -10,27 -7,7 -17,11 -31,13 5,3 9,5 12,8 5,5 11,11 16,19l25 40 -24 0 -19 -30c-6,-9 -11,-16 -14,-21 -4,-4 -7,-8 -10,-10 -3,-1 -6,-3 -9,-3 -2,-1 -6,-1 -11,-1l-22 0 0 65 -20 0zm20 -82l41 0c9,0 16,-1 21,-3 5,-1 9,-4 11,-8 3,-4 4,-9 4,-14 0,-6 -2,-12 -7,-17 -5,-4 -13,-6 -24,-6l-46 0 0 48z"/>
   </g>
  </g>
 </g>
</svg>
